<svg width="512" height="512" viewBox="0 0 512 512" fill="none" xmlns="http://www.w3.org/2000/svg">
  <defs>
    <!-- Divine spectrum (Gold) -->
    <radialGradient id="divine_gradient" cx="0" cy="0" r="1" gradientUnits="userSpaceOnUse" gradientTransform="translate(256 256) scale(250)">
      <stop offset="15%" stop-color="#990000" /> <!-- Deep Crimson (Center) -->
      <stop offset="40%" stop-color="#FF4500" /> <!-- Strong Saffron -->
      <stop offset="70%" stop-color="#FF8C00" /> <!-- Dark Orange -->
      <stop offset="95%" stop-color="#FFD700" /> <!-- Divine Gold (Edge) -->
    </radialGradient>

    <!-- Silver Spectrum -->
    <radialGradient id="silver_gradient" cx="0" cy="0" r="1" gradientUnits="userSpaceOnUse" gradientTransform="translate(256 256) scale(250)">
      <stop offset="15%" stop-color="#151515" /> <!-- Deep Charcoal -->
      <stop offset="40%" stop-color="#3A3A3A" /> <!-- Dark Steel -->
      <stop offset="70%" stop-color="#6A6A6A" /> <!-- Silver Grey -->
      <stop offset="95%" stop-color="#999999" /> <!-- Brightened Silver -->
    </radialGradient>
  </defs>

  <!-- Background Aura -->
  <circle cx="256" cy="256" r="240" fill="url(#divine_gradient)" fill-opacity="0.05" />

  <!-- Silver Pattern (Anti-Clockwise, Behind) -->
  <g transform="translate(256, 256) scale(0.921, -0.921)">
    <path d="M 0 0 C 30 -5, 60 -70, 130 -70 C 180 -70, 210 -30, 240 -30" 
          stroke="url(#silver_gradient)" stroke-width="72" stroke-linecap="round" fill="none" />
    <path d="M 0 0 C 30 -5, 60 -70, 130 -70 C 180 -70, 210 -30, 240 -30" 
          stroke="url(#silver_gradient)" stroke-width="72" stroke-linecap="round" fill="none" 
          transform="rotate(90)" />
    <path d="M 0 0 C 30 -5, 60 -70, 130 -70 C 180 -70, 210 -30, 240 -30" 
          stroke="url(#silver_gradient)" stroke-width="72" stroke-linecap="round" fill="none" 
          transform="rotate(180)" />
    <path d="M 0 0 C 30 -5, 60 -70, 130 -70 C 180 -70, 210 -30, 240 -30" 
          stroke="url(#silver_gradient)" stroke-width="72" stroke-linecap="round" fill="none" 
          transform="rotate(270)" />
  </g>

  <!-- Gold Pattern (Clockwise, Above) -->
  <g transform="translate(256, 256) scale(0.921)">
    <path d="M 0 0 C 30 -5, 60 -70, 130 -70 C 180 -70, 210 -30, 240 -30" 
          stroke="url(#divine_gradient)" stroke-width="72" stroke-linecap="round" fill="none" />
    <path d="M 0 0 C 30 -5, 60 -70, 130 -70 C 180 -70, 210 -30, 240 -30" 
          stroke="url(#divine_gradient)" stroke-width="72" stroke-linecap="round" fill="none" 
          transform="rotate(90)" />
    <path d="M 0 0 C 30 -5, 60 -70, 130 -70 C 180 -70, 210 -30, 240 -30" 
          stroke="url(#divine_gradient)" stroke-width="72" stroke-linecap="round" fill="none" 
          transform="rotate(180)" />
    <path d="M 0 0 C 30 -5, 60 -70, 130 -70 C 180 -70, 210 -30, 240 -30" 
          stroke="url(#divine_gradient)" stroke-width="72" stroke-linecap="round" fill="none" 
          transform="rotate(270)" />
          
    <!-- Central Bindu -->
    <circle cx="0" cy="0" r="42" fill="#990000" stroke="#FF4500" stroke-width="6" />
  </g>
</svg>
